<?xml version="1.0" encoding="UTF-8"?>
<svg width="220px" height="39px" viewBox="0 0 220 39" version="1.1" xmlns="http://www.w3.org/2000/svg" xmlns:xlink="http://www.w3.org/1999/xlink">
    <!-- Generator: Sketch 57.1 (83088) - https://sketch.com -->
    <title>Group 24</title>
    <desc>Created with Sketch.</desc>
    <defs>
        <polygon id="path-1" points="0 38.712446 219.999998 38.712446 219.999998 0 0 0"></polygon>
    </defs>
    <g id="Symbols" stroke="none" stroke-width="1" fill="none" fill-rule="evenodd">
        <g id="*-/-Components-/-Top-Nav-Bar-/-Whit-BG" transform="translate(-168.000000, -25.000000)">
            <g id="Group-24" transform="translate(168.000000, 25.000000)">
                <path d="M54.2188715,20.6133506 L50.3756116,20.6133506 L50.3756116,27.4697267 L54.2188715,27.4697267 C56.0816472,27.4697267 57.2638724,26.6236488 57.2638724,24.055995 C57.2638724,21.4888485 56.0816472,20.6133506 54.2188715,20.6133506 M54.4255039,31.116282 L50.3756116,31.116282 L50.3756116,37.76824 L46.266094,37.76824 L46.266094,16.995708 L54.4255039,16.995708 C58.7719806,16.995708 61.37339,19.3584364 61.37339,24.055995 C61.37339,28.7530463 58.7719806,31.116282 54.4255039,31.116282" id="Fill-1" fill="#0075BD"></path>
                <path d="M72.7204579,24.4292182 L69.8569112,24.4292182 C67.600372,24.4292182 67.0220301,26.3012992 67.0220301,29.3726105 C67.0220301,32.4444303 67.600372,33.7606339 69.8569112,33.7606339 L72.7204579,32.2689704 L72.7204579,24.4292182 Z M73.9646473,37.5927801 L72.8069577,35.5742283 L68.7867272,37.76824 C64.1584834,37.76824 63.261802,34.1410514 63.261802,29.3726105 C63.261802,25.2775288 63.4931388,21.0069871 68.7575587,21.0069871 L72.7204579,21.0069871 L76.480686,20.772532 L76.480686,37.5927801 L73.9646473,37.5927801 Z" id="Fill-3" fill="#0075BD"></path>
                <path d="M92.532188,31.3482593 C92.3862606,33.4400847 92.4447333,34.8163644 91.3627352,35.934031 C90.4266646,36.9081898 88.2916506,37.76824 86.0396913,37.76824 C83.7882405,37.76824 81.9750802,36.9081898 81.0390095,35.934031 C79.6646483,34.5298471 79.313304,31.8355879 79.313304,29.1129261 C79.313304,26.4186668 79.6646483,24.0109249 81.0390095,22.606741 C81.9750802,21.6325822 83.7882405,20.772532 86.0396913,20.772532 C90.3392098,20.772532 92.4737154,23.0083635 92.4737154,26.6194781 L89.0233212,26.6194781 C89.0233212,25.0433838 88.4380864,24.1260301 86.0396913,24.1260301 C83.4663867,24.1260301 83.1150424,25.9029357 83.1150424,28.3679811 L83.1150424,29.8583693 C83.1150424,32.2083095 83.378932,34.4147419 86.0396913,34.4147419 C88.8473948,34.4147419 89.0233212,33.2970752 89.0812854,31.3771602 L92.532188,31.3482593 Z" id="Fill-5" fill="#0075BD"></path>
                <mask id="mask-2" fill="white">
                    <use xlink:href="#path-1"></use>
                </mask>
                <g id="Clip-8"></g>
                <polygon id="Fill-7" fill="#0075BD" mask="url(#mask-2)" points="95.364806 37.76824 99.14163 37.76824 99.14163 21.716738 95.364806 21.716738"></polygon>
                <path d="M107.365902,24.7901437 L107.365902,37.76824 L103.556642,37.76824 L103.556642,24.7901437 L101.974248,24.7901437 L101.974248,21.9350929 L103.556642,21.9350929 L103.556642,20.3486192 C103.556642,18.2146016 104.904174,16.051502 108.010374,16.051502 L110.472102,16.051502 L110.472102,19.2239478 L108.684394,19.2239478 C107.77602,19.2239478 107.365902,19.7143306 107.365902,20.5797711 L107.365902,21.9350929 L110.472102,21.9350929 L110.472102,24.7901437 L107.365902,24.7901437 Z" id="Fill-9" fill="#0075BD" mask="url(#mask-2)"></path>
                <polygon id="Fill-10" fill="#0075BD" mask="url(#mask-2)" points="114.248926 37.76824 118.02575 37.76824 118.02575 21.716738 114.248926 21.716738"></polygon>
                <path d="M134.077252,31.3482593 C133.930816,33.4400847 133.989289,34.8163644 132.907291,35.934031 C131.97122,36.9081898 129.836206,37.76824 127.584247,37.76824 C125.332796,37.76824 123.519636,36.9081898 122.584074,35.934031 C121.209204,34.5298471 120.858368,31.8355879 120.858368,29.1129261 C120.858368,26.4186668 121.209204,24.0109249 122.584074,22.606741 C123.519636,21.6325822 125.332796,20.772532 127.584247,20.772532 C131.883765,20.772532 134.018779,23.0083635 134.018779,26.6194781 L130.567877,26.6194781 C130.567877,25.0433838 129.982642,24.1260301 127.584247,24.1260301 C125.010942,24.1260301 124.660615,25.9029357 124.660615,28.3679811 L124.660615,29.8583693 C124.660615,32.2083095 124.923488,34.4147419 127.584247,34.4147419 C130.39195,34.4147419 130.567877,33.2970752 130.626349,31.3771602 L134.077252,31.3482593 Z" id="Fill-11" fill="#0075BD" mask="url(#mask-2)"></path>
                <path d="M148.847546,37.76824 C145.6072,37.76824 140.686694,36.075231 140.686694,31.1119312 L144.467446,30.9403357 C144.467446,33.1775618 146.927438,34.2106265 148.907533,34.2106265 C151.368047,34.2106265 152.658031,33.3212231 152.658031,31.6860777 C152.658031,30.2514596 151.667983,29.476287 150.107797,29.2473267 L146.627502,28.9031381 C143.327169,28.4437211 140.956897,26.7217803 140.956897,23.1930986 C140.956897,19.5496874 144.077269,16.995708 148.997775,16.995708 C152.987699,16.995708 156.108592,19.3202283 156.108592,22.792044 L152.387828,22.9636395 C151.967397,20.9553737 150.287758,20.4675237 148.877801,20.4675237 C146.357821,20.4675237 144.977597,21.643751 144.977597,23.0494373 C144.977597,24.3982576 146.237326,25.1439997 147.587296,25.316094 L151.008125,25.6607814 C154.518152,26.1196996 156.738196,27.8695746 156.738196,31.5708494 C156.738196,35.5305151 153.317889,37.76824 148.847546,37.76824" id="Fill-12" fill="#0075BD" mask="url(#mask-2)"></path>
                <path d="M168.484179,27.5019164 C168.484179,24.9134609 167.515313,23.8784786 165.549347,23.8784786 C163.783493,23.8784786 162.387157,24.8559618 162.387157,27.5019164 L168.484179,27.5019164 Z M162.30196,30.0613724 C162.30196,32.7933255 162.814627,34.3747983 165.805928,34.3747983 C167.88582,34.3747983 168.484179,32.5633294 168.484179,31.8158423 L171.817258,31.8158423 C171.817258,36.1002687 169.253428,37.76824 165.777199,37.76824 C160.762968,37.76824 158.626608,35.8132736 158.626608,28.5948976 C158.626608,23.1304915 160.962586,20.772532 165.663768,20.772532 C170.364454,20.772532 171.845492,23.8784786 171.845492,27.7029129 C171.845492,28.4219006 171.817258,29.2558862 171.789024,30.0613724 L162.30196,30.0613724 Z" id="Fill-13" fill="#0075BD" mask="url(#mask-2)"></path>
                <path d="M184.535681,27.5019164 C184.535681,24.9134609 183.566815,23.8784786 181.600849,23.8784786 C179.834995,23.8784786 178.438659,24.8559618 178.438659,27.5019164 L184.535681,27.5019164 Z M178.353462,30.0613724 C178.353462,32.7933255 178.866129,34.3747983 181.85743,34.3747983 C183.937322,34.3747983 184.535681,32.5633294 184.535681,31.8158423 L187.86876,31.8158423 C187.86876,36.1002687 185.30493,37.76824 181.828701,37.76824 C176.81447,37.76824 174.67811,35.8132736 174.67811,28.5948976 C174.67811,23.1304915 177.014088,20.772532 181.71527,20.772532 C186.415956,20.772532 187.896994,23.8784786 187.896994,27.7029129 C187.896994,28.4219006 187.86876,29.2558862 187.840526,30.0613724 L178.353462,30.0613724 Z" id="Fill-14" fill="#0075BD" mask="url(#mask-2)"></path>
                <path d="M200.188411,25.0799115 L197.324973,25.0799115 C195.06852,25.0799115 194.4902,26.9931858 194.4902,30.1320785 C194.4902,33.2714909 195.06852,34.6166563 197.324973,34.6166563 L200.188411,33.0921701 L200.188411,25.0799115 Z M201.43205,38.5331253 L200.27541,36.4701571 L196.25483,38.712446 C191.626762,38.712446 190.729612,35.0054445 190.729612,30.1320785 C190.729612,25.9468883 190.96094,21.5823774 196.225662,21.5823774 L200.188411,21.5823774 L200.188411,16.051502 L203.948496,16.051502 L203.948496,38.5331253 L201.43205,38.5331253 Z" id="Fill-15" fill="#0075BD" mask="url(#mask-2)"></path>
                <path d="M219.055792,33.3958584 C218.828556,36.4654857 216.185707,37.76824 213.17434,37.76824 C210.02021,37.76824 206.781114,37.1017614 206.781114,32.8456612 L206.781114,32.4983272 L210.133828,32.4983272 C210.133828,34.3225858 211.015107,34.8143907 213.17434,34.8143907 C214.282361,34.8143907 215.447191,34.4378605 215.447191,33.1351062 C215.447191,32.295464 215.333573,31.2247691 213.714272,30.9348207 L210.844681,30.4430159 C208.401403,30.0372894 207.09381,28.4450902 207.09381,25.6654112 C207.09381,22.4518165 209.708008,20.772532 212.975262,20.772532 C215.703078,20.772532 218.799905,21.6408671 218.799905,25.8974706 L218.799905,26.2740008 L215.588966,26.2740008 C215.504494,24.3339642 214.453282,23.9282378 213.003913,23.9282378 C211.384612,23.9282378 210.67376,24.76788 210.67376,25.462548 C210.67376,26.0998305 210.816029,27.1423359 211.980859,27.3446957 L215.419033,27.9814748 C218.175007,28.5024758 219.055792,30.6166829 219.055792,32.9619426 L219.055792,33.3958584 Z" id="Fill-16" fill="#0075BD" mask="url(#mask-2)"></path>
                <path d="M99.14163,18.88412 C99.14163,19.9270597 98.2961577,20.772532 97.253218,20.772532 C96.2102783,20.772532 95.364806,19.9270597 95.364806,18.88412 C95.364806,17.8411803 96.2102783,16.995708 97.253218,16.995708 C98.2961577,16.995708 99.14163,17.8411803 99.14163,18.88412" id="Fill-17" fill="#0075BD" mask="url(#mask-2)"></path>
                <path d="M118.02575,18.88412 C118.02575,19.9270597 117.180394,20.772532 116.137078,20.772532 C115.094282,20.772532 114.248926,19.9270597 114.248926,18.88412 C114.248926,17.8411803 115.094282,16.995708 116.137078,16.995708 C117.180394,16.995708 118.02575,17.8411803 118.02575,18.88412" id="Fill-18" fill="#0075BD" mask="url(#mask-2)"></path>
                <path d="M1.888412,4.72103 L1.888412,6.12136551 L1.888412,7.87255885 L1.888412,17.0191129 L1.888412,18.377655 L1.888412,21.71648 L1.888412,21.71648 C1.888412,31.1034748 9.07491565,38.712446 17.9401656,38.712446 L33.991416,38.712446 L1.888412,4.72103 Z" id="Fill-19" fill="#0075BD" mask="url(#mask-2)"></path>
                <path d="M17.939914,0 C26.8053029,0 33.991416,7.60948714 33.991416,16.99545 L33.991416,18.9091731 L33.991416,21.6933331 L33.991416,24.0595596 L33.991416,29.7651271 L33.991416,33.991416 L17.939914,16.99545 L17.939914,0 Z" id="Fill-20" fill="#3AB3E5" mask="url(#mask-2)"></path>
                <polygon id="Fill-21" fill="#8FCEEE" mask="url(#mask-2)" points="16.051502 0 16.051502 15.107296 0 0"></polygon>
                <polygon id="Fill-22" fill="#0075BD" mask="url(#mask-2)" points="216.018479 16.4942504 215.278968 16.4942504 215.278968 16.051502 217.16738 16.051502 217.16738 16.4942504 216.427869 16.4942504 216.427869 18.88412 216.018479 18.88412"></polygon>
                <path d="M217.388851,16.051502 L217.915498,16.051502 L218.446214,17.4517131 C218.50725,17.619374 218.58398,17.866613 218.58398,17.866613 L218.590955,17.866613 C218.590955,17.866613 218.663616,17.619374 218.725233,17.4517131 L219.255949,16.051502 L219.782596,16.051502 L219.999998,18.88412 L219.511135,18.88412 L219.396621,17.3004539 C219.385576,17.1121391 219.393133,16.8612553 219.393133,16.8612553 L219.385576,16.8612553 C219.385576,16.8612553 219.305358,17.1364378 219.240835,17.3004539 L218.801381,18.3969316 L218.369484,18.3969316 L217.934681,17.3004539 C217.869576,17.1364378 217.785871,16.8570031 217.785871,16.8570031 L217.778314,16.8570031 C217.778314,16.8570031 217.785871,17.1121391 217.774245,17.3004539 L217.659731,18.88412 L217.16738,18.88412 L217.388851,16.051502 Z" id="Fill-23" fill="#0075BD" mask="url(#mask-2)"></path>
            </g>
        </g>
    </g>
</svg>